<svg xmlns="http://www.w3.org/2000/svg" viewBox="0 0 700 350">
  <text x="350" y="25" text-anchor="middle" font-family="system-ui" font-size="16" font-weight="bold" fill="#1f2937">Belief Drift Timeline</text>
  <line x1="60" y1="300" x2="650" y2="300" stroke="#d1d5db" stroke-width="2"/><text x="350" y="330" text-anchor="middle" font-family="system-ui" font-size="11" fill="#6b7280">Time</text>
  <line x1="60" y1="50" x2="60" y2="300" stroke="#d1d5db" stroke-width="2"/><text x="25" y="175" text-anchor="middle" font-family="system-ui" font-size="10" fill="#6b7280" transform="rotate(-90,25,175)">Confidence</text>
  <text x="55" y="55" font-family="system-ui" font-size="9" fill="#6b7280" text-anchor="end">1.0</text>
  <text x="55" y="175" font-family="system-ui" font-size="9" fill="#6b7280" text-anchor="end">0.5</text>
  <text x="55" y="305" font-family="system-ui" font-size="9" fill="#6b7280" text-anchor="end">0.0</text>
  <path d="M80 100 C200 90,300 75,400 65 C500 55,580 48,630 46" fill="none" stroke="#059669" stroke-width="2.5"/><text x="640" y="50" font-family="system-ui" font-size="9" fill="#059669">Crystallizing</text>
  <path d="M80 150 C200 165,300 185,400 220 C500 255,580 275,630 280" fill="none" stroke="#dc2626" stroke-width="2.5"/><text x="640" y="284" font-family="system-ui" font-size="9" fill="#dc2626">Weakening</text>
  <path d="M80 200 C200 190,300 200,400 190 C500 195,580 188,630 190" fill="none" stroke="#3b82f6" stroke-width="2.5"/><text x="640" y="194" font-family="system-ui" font-size="9" fill="#3b82f6">Stable</text>
  <circle cx="400" cy="220" r="8" fill="#fef3c7" stroke="#d97706" stroke-width="2"/><text x="415" y="215" font-family="system-ui" font-size="9" fill="#d97706">Collapse</text>
</svg>
