<svg xmlns="http://www.w3.org/2000/svg" width="980" height="520" viewBox="0 0 980 520">
  <rect width="980" height="520" fill="#0d1117" rx="12"/>
  <text x="490" y="40" font-family="system-ui, sans-serif" font-size="20" font-weight="600" fill="#c9d1d9" text-anchor="middle">AgenticCognition Architecture</text>
  <!-- Agent Layer -->
  <rect x="240" y="60" width="500" height="50" fill="#1e293b" stroke="#334155" stroke-width="1" rx="8"/>
  <text x="490" y="82" font-family="system-ui, sans-serif" font-size="14" fill="#c9d1d9" text-anchor="middle">YOUR AI AGENT</text>
  <text x="490" y="100" font-family="system-ui, sans-serif" font-size="11" fill="#64748b" text-anchor="middle">Claude | Cursor | Windsurf | Cody</text>
  <!-- Arrow -->
  <line x1="490" y1="110" x2="490" y2="140" stroke="#F59E0B" stroke-width="2"/>
  <polygon points="485,140 490,150 495,140" fill="#F59E0B"/>
  <!-- MCP Layer -->
  <rect x="340" y="150" width="300" height="40" fill="#1e293b" stroke="#F59E0B" stroke-width="1" rx="8"/>
  <text x="490" y="175" font-family="system-ui, sans-serif" font-size="14" fill="#F59E0B" text-anchor="middle">MCP LAYER -- 14 Tools + stdio</text>
  <!-- Arrow -->
  <line x1="490" y1="190" x2="490" y2="220" stroke="#F59E0B" stroke-width="2"/>
  <polygon points="485,220 490,230 495,220" fill="#F59E0B"/>
  <!-- Engine Layer -->
  <rect x="90" y="230" width="800" height="120" fill="#1e293b" stroke="#334155" stroke-width="1" rx="8"/>
  <text x="490" y="255" font-family="system-ui, sans-serif" font-size="14" fill="#c9d1d9" text-anchor="middle">COGNITION ENGINE</text>
  <!-- Sub-modules -->
  <rect x="110" y="270" width="140" height="60" fill="#0d1117" stroke="#3B82F6" stroke-width="1" rx="4"/>
  <text x="180" y="295" font-family="monospace" font-size="11" fill="#3B82F6" text-anchor="middle">Write Engine</text>
  <text x="180" y="315" font-family="monospace" font-size="10" fill="#64748b" text-anchor="middle">CRUD + heartbeat</text>
  <rect x="270" y="270" width="140" height="60" fill="#0d1117" stroke="#3B82F6" stroke-width="1" rx="4"/>
  <text x="340" y="295" font-family="monospace" font-size="11" fill="#3B82F6" text-anchor="middle">Query Engine</text>
  <text x="340" y="315" font-family="monospace" font-size="10" fill="#64748b" text-anchor="middle">search + graph</text>
  <rect x="430" y="270" width="140" height="60" fill="#0d1117" stroke="#8B5CF6" stroke-width="1" rx="4"/>
  <text x="500" y="295" font-family="monospace" font-size="11" fill="#8B5CF6" text-anchor="middle">24 Inventions</text>
  <text x="500" y="315" font-family="monospace" font-size="10" fill="#64748b" text-anchor="middle">P0-P4 tiers</text>
  <rect x="590" y="270" width="140" height="60" fill="#0d1117" stroke="#22C55E" stroke-width="1" rx="4"/>
  <text x="660" y="295" font-family="monospace" font-size="11" fill="#22C55E" text-anchor="middle">Belief Physics</text>
  <text x="660" y="315" font-family="monospace" font-size="10" fill="#64748b" text-anchor="middle">crystal + gravity</text>
  <rect x="750" y="270" width="120" height="60" fill="#0d1117" stroke="#22C55E" stroke-width="1" rx="4"/>
  <text x="810" y="295" font-family="monospace" font-size="11" fill="#22C55E" text-anchor="middle">Prediction</text>
  <text x="810" y="315" font-family="monospace" font-size="10" fill="#64748b" text-anchor="middle">oracle + sim</text>
  <!-- Arrow to storage -->
  <line x1="490" y1="350" x2="490" y2="380" stroke="#F59E0B" stroke-width="2"/>
  <polygon points="485,380 490,390 495,380" fill="#F59E0B"/>
  <!-- Storage -->
  <rect x="340" y="390" width="300" height="50" fill="#1e293b" stroke="#22C55E" stroke-width="1" rx="8"/>
  <text x="490" y="412" font-family="system-ui, sans-serif" font-size="14" fill="#22C55E" text-anchor="middle">.acog FILE</text>
  <text x="490" y="430" font-family="system-ui, sans-serif" font-size="11" fill="#64748b" text-anchor="middle">BLAKE3 integrity | atomic writes | your user model</text>
  <!-- Sister bridges -->
  <text x="490" y="480" font-family="system-ui, sans-serif" font-size="12" fill="#64748b" text-anchor="middle">Optional bridges: Memory | Planning | Identity | Time | Codebase | Vision | Comm</text>
  <text x="490" y="505" font-family="monospace" font-size="11" fill="#F59E0B" text-anchor="middle">All bridges have NoOp defaults -- standalone by design</text>
</svg>
