<svg xmlns="http://www.w3.org/2000/svg" viewBox="0 0 1400 360" role="img" aria-label="AgenticCognition GitHub hero pane">
  <defs>
    <pattern id="grid" width="20" height="20" patternUnits="userSpaceOnUse">
      <circle cx="2" cy="2" r="1" fill="#b8b6ae"/>
    </pattern>
  </defs>
  <rect width="1400" height="360" fill="#f2f1ea"/>
  <rect width="1400" height="360" fill="url(#grid)"/>
  <rect x="20" y="20" width="1360" height="320" fill="none" stroke="#111111" stroke-width="2"/>
  <line x1="20" y1="62" x2="1380" y2="62" stroke="#111111" stroke-width="2"/>
  <text x="40" y="48" font-family="'JetBrains Mono', monospace" font-size="14" fill="#5f5c53" letter-spacing="2"> // AGENTRA_LABS: MODULE_HERO</text>
  <rect x="1318" y="36" width="8" height="8" fill="#ea580c"/>
  <text x="1336" y="48" font-family="'JetBrains Mono', monospace" font-size="12" fill="#5f5c53" letter-spacing="2">008</text>

  <!-- Belief graph visualization -->
  <rect x="46" y="92" width="232" height="232" fill="none" stroke="#111111" stroke-width="2"/>
  <rect x="46" y="92" width="232" height="38" fill="#111111"/>
  <text x="62" y="116" font-family="'JetBrains Mono', monospace" font-size="11" fill="#f2f1ea" letter-spacing="2">BELIEF.GRAPH</text>

  <!-- Belief nodes -->
  <circle cx="120" cy="180" r="12" fill="none" stroke="#111111" stroke-width="3"/>
  <circle cx="200" cy="155" r="10" fill="none" stroke="#ea580c" stroke-width="3"/>
  <circle cx="230" cy="220" r="9" fill="none" stroke="#111111" stroke-width="3"/>
  <circle cx="160" cy="248" r="8" fill="none" stroke="#111111" stroke-width="3"/>
  <circle cx="95" cy="235" r="7" fill="none" stroke="#ea580c" stroke-width="3"/>
  <circle cx="172" cy="185" r="6" fill="#ea580c" stroke="none"/>
  <!-- Edges -->
  <line x1="120" y1="180" x2="200" y2="155" stroke="#111111" stroke-width="2"/>
  <line x1="200" y1="155" x2="230" y2="220" stroke="#111111" stroke-width="2"/>
  <line x1="120" y1="180" x2="160" y2="248" stroke="#ea580c" stroke-width="2"/>
  <line x1="95" y1="235" x2="160" y2="248" stroke="#111111" stroke-width="2"/>
  <line x1="120" y1="180" x2="95" y2="235" stroke="#111111" stroke-width="2"/>
  <line x1="172" y1="185" x2="200" y2="155" stroke="#ea580c" stroke-width="1.5" stroke-dasharray="4 3"/>
  <line x1="172" y1="185" x2="160" y2="248" stroke="#ea580c" stroke-width="1.5" stroke-dasharray="4 3"/>

  <!-- Text content -->
  <text x="324" y="136" font-family="'JetBrains Mono', monospace" font-size="54" fill="#111111" font-weight="700" letter-spacing="1">AGENTICCOGNITION</text>
  <text x="324" y="172" font-family="'JetBrains Mono', monospace" font-size="18" fill="#ea580c" font-weight="700" letter-spacing="2">LIVING USER MODEL FOR AI AGENTS</text>
  <text x="324" y="210" font-family="'JetBrains Mono', monospace" font-size="16" fill="#5f5c53">
    Belief physics, shadow psychology, drift tracking, and predictive simulation
  </text>
  <text x="324" y="234" font-family="'JetBrains Mono', monospace" font-size="16" fill="#5f5c53">
    in one portable binary that knows who you are and who you are becoming.
  </text>

  <!-- Badges -->
  <rect x="324" y="258" width="154" height="34" fill="#111111"/>
  <text x="344" y="280" font-family="'JetBrains Mono', monospace" font-size="12" fill="#f2f1ea" letter-spacing="2">MCP-NATIVE</text>
  <rect x="488" y="258" width="146" height="34" fill="#111111"/>
  <text x="508" y="280" font-family="'JetBrains Mono', monospace" font-size="12" fill="#f2f1ea" letter-spacing="2">PORTABLE</text>
  <rect x="644" y="258" width="108" height="34" fill="#ea580c"/>
  <text x="672" y="280" font-family="'JetBrains Mono', monospace" font-size="12" fill="#f2f1ea" letter-spacing="2">.ACOG</text>
</svg>